HIERARCHY
ROOT root
{
	OFFSET 0.000000 0.000000 0.000000
	CHANNELS 6 Xposition Yposition Zposition Zrotation Yrotation Xrotation
	JOINT lhip
	{
		OFFSET 0.058581 -0.082280 -0.017664
		CHANNELS 3 Zrotation Yrotation Xrotation
		JOINT lknee
		{
			OFFSET 0.043451 -0.386469 0.008037
			CHANNELS 3 Zrotation Yrotation Xrotation
			JOINT lankle
			{
				OFFSET -0.014790 -0.426874 -0.037428
				CHANNELS 3 Zrotation Yrotation Xrotation
				JOINT ltoe
				{
					OFFSET 0.041054 -0.060286 0.122042
					CHANNELS 3 Zrotation Yrotation Xrotation
					End Site
					{
						OFFSET 0.000000 0.000000 0.000000
					}
				}
			}
		}
	}
	JOINT rhip
	{
		OFFSET -0.060310 -0.090513 -0.013543
		CHANNELS 3 Zrotation Yrotation Xrotation
		JOINT rknee
		{
			OFFSET -0.043257 -0.383688 -0.004843
			CHANNELS 3 Zrotation Yrotation Xrotation
			JOINT rankle
			{
				OFFSET 0.019056 -0.420046 -0.034562
				CHANNELS 3 Zrotation Yrotation Xrotation
				JOINT rtoe
				{
					OFFSET -0.034840 -0.062106 0.130323
					CHANNELS 3 Zrotation Yrotation Xrotation
					End Site
					{
						OFFSET 0.000000 0.000000 0.000000
					}
				}
			}
		}
	}
	JOINT lowerback
	{
		OFFSET 0.004439 0.124404 -0.038385
		CHANNELS 3 Zrotation Yrotation Xrotation
		JOINT upperback
		{
			OFFSET 0.004488 0.137956 0.026820
			CHANNELS 3 Zrotation Yrotation Xrotation
			JOINT chest
			{
				OFFSET -0.002265 0.056032 0.002855
				CHANNELS 3 Zrotation Yrotation Xrotation
				JOINT lowerneck
				{
					OFFSET -0.013390 0.211636 -0.033468
					CHANNELS 3 Zrotation Yrotation Xrotation
					JOINT upperneck
					{
						OFFSET 0.010113 0.088937 0.050410
						CHANNELS 3 Zrotation Yrotation Xrotation
						End Site
						{
							OFFSET 0.000000 0.000000 0.000000
						}
					}
				}
				JOINT lclavicle
				{
					OFFSET 0.071702 0.114000 -0.018898
					CHANNELS 3 Zrotation Yrotation Xrotation
					JOINT lshoulder
					{
						OFFSET 0.122921 0.045205 -0.019046
						CHANNELS 3 Zrotation Yrotation Xrotation
						JOINT lelbow
						{
							OFFSET 0.255332 -0.015649 -0.022946
							CHANNELS 3 Zrotation Yrotation Xrotation
							JOINT lwrist
							{
								OFFSET 0.265709 0.012698 -0.007375
								CHANNELS 3 Zrotation Yrotation Xrotation
								End Site
								{
									OFFSET 0.000000 0.000000 0.000000
								}
							}
						}
					}
				}
				JOINT rclavicle
				{
					OFFSET -0.082954 0.112472 -0.023707
					CHANNELS 3 Zrotation Yrotation Xrotation
					JOINT rshoulder
					{
						OFFSET -0.113228 0.046853 -0.008472
						CHANNELS 3 Zrotation Yrotation Xrotation
						JOINT relbow
						{
							OFFSET -0.260127 -0.014369 -0.031269
							CHANNELS 3 Zrotation Yrotation Xrotation
							JOINT rwrist
							{
								OFFSET -0.269108 0.006794 -0.006027
								CHANNELS 3 Zrotation Yrotation Xrotation
								End Site
								{
									OFFSET 0.000000 0.000000 0.000000
								}
							}
						}
					}
				}
			}
		}
	}
}
MOTION
Frames: 10
Frame Time: 0.033333
-0.457079 0.619344 0.998656 75.518811 0.814172 93.262915 3.701494 0.972657 -4.804915 -2.696597 0.973422 3.656554 2.389141 9.572569 -4.583009 0.000000 -0.000000 0.000000 -3.651473 -4.239251 -8.423094 1.368853 -3.907485 10.089997 0.397981 -6.651929 -7.298765 0.000000 -0.000000 0.000000 0.731115 -0.248441 9.895032 2.825353 -3.087225 0.489039 0.523541 -1.787173 -2.773832 -1.447449 -8.629236 -7.660355 2.906040 -11.646770 5.968532 -29.030426 -8.242891 8.389626 -54.143635 -12.781100 22.586243 -9.777890 -62.942214 18.431788 20.753270 -0.921355 -41.044195 29.231808 9.928430 5.202396 48.433677 9.558516 20.737720 -1.109104 45.757200 13.746135 -15.219390 15.123967 -10.219839 
-0.456052 0.618810 0.998512 75.743739 0.918023 93.199339 3.837374 0.893918 -4.713181 -2.704710 0.775143 3.700029 2.203728 9.647364 -4.656528 0.000000 -0.000000 0.000000 -3.498966 -4.693715 -8.183645 1.422821 -3.523977 9.966992 0.614192 -6.791555 -7.364484 0.000000 -0.000000 0.000000 0.989127 -0.382957 9.855434 2.600188 -3.130611 0.334088 0.630702 -1.823268 -2.488152 -1.543044 -8.889652 -7.872251 2.804985 -11.513973 6.284673 -28.920470 -8.297993 8.372839 -54.363382 -12.569005 22.431594 -9.533163 -62.942296 18.554165 20.739533 -0.702694 -41.221749 29.194987 10.131346 5.110526 48.651897 9.344988 20.561314 -1.418014 45.427329 13.372344 -14.989845 15.182389 -9.815825 
-0.455451 0.618186 0.998382 75.768764 0.944918 93.216700 3.898108 0.887823 -4.694056 -2.710363 0.769638 3.713153 2.201669 9.648744 -4.688868 0.000000 -0.000000 0.000000 -3.444938 -4.710710 -8.146465 1.431538 -3.518086 9.968497 0.565527 -6.797543 -7.413245 0.000000 -0.000000 0.000000 0.983336 -0.362161 9.731680 2.617132 -3.102802 0.377223 0.652097 -1.823051 -2.496225 -1.607823 -8.942434 -7.762110 2.726107 -11.550164 6.294461 -28.940518 -8.203718 8.423919 -54.401284 -12.485992 22.392131 -9.389952 -62.986905 18.455699 20.717564 -0.681564 -41.281195 29.276801 10.132593 5.179503 48.732363 9.383500 20.517668 -1.570059 45.201252 13.178150 -14.963300 15.132615 -9.804037 
-0.454632 0.617447 0.998227 75.887466 0.971133 93.226423 3.972634 0.870890 -4.684496 -2.733104 0.712976 3.763590 2.182635 9.639436 -4.744645 0.000000 -0.000000 0.000000 -3.388274 -4.718168 -8.077092 1.434307 -3.561959 9.988592 0.510348 -6.861759 -7.486653 0.000000 -0.000000 0.000000 0.968944 -0.338022 9.579635 2.631795 -3.063079 0.427664 0.655391 -1.822893 -2.511179 -1.609631 -8.951384 -7.736298 2.678388 -11.611513 6.461135 -28.926953 -8.108707 8.502241 -54.437891 -12.404472 22.344422 -9.326001 -63.137454 18.441076 20.563258 -0.694627 -41.261710 29.325224 10.093835 5.200999 48.845539 9.426068 20.506947 -1.592099 45.144519 13.174867 -14.743402 15.104588 -9.739347 
-0.454102 0.617085 0.998165 76.004123 0.981534 93.235431 4.003210 0.842263 -4.697191 -2.738104 0.652316 3.812408 2.177785 9.629336 -4.776843 0.000000 -0.000000 0.000000 -3.361484 -4.738732 -8.036129 1.434592 -3.602363 10.007647 0.490591 -6.915812 -7.535817 0.000000 -0.000000 0.000000 0.960448 -0.316688 9.491443 2.646109 -3.043940 0.410996 0.647798 -1.823788 -2.491836 -1.589781 -8.949614 -7.763071 2.675695 -11.659565 6.580007 -28.881421 -8.066951 8.490908 -54.453420 -12.404022 22.395428 -9.477540 -63.136850 18.622113 20.605217 -0.674009 -41.356035 29.347913 10.033227 5.165953 48.880816 9.445540 20.542953 -1.518990 45.192596 13.279000 -14.602284 15.090357 -9.792773 
-0.453274 0.616597 0.998072 76.146928 0.976959 93.221259 4.024278 0.817486 -4.646519 -2.749830 0.575937 3.823038 2.171272 9.615594 -4.808864 0.000000 -0.000000 0.000000 -3.347351 -4.752036 -7.941093 1.422349 -3.656871 10.028600 0.475404 -6.982369 -7.608750 0.000000 -0.000000 0.000000 0.936585 -0.287274 9.383701 2.643551 -2.989062 0.372298 0.622967 -1.798663 -2.484832 -1.567195 -8.997040 -7.744269 2.659779 -11.758778 6.808368 -28.847803 -8.009965 8.413836 -54.439692 -12.355565 22.491386 -9.698696 -63.142686 18.872075 20.594585 -0.684495 -41.396452 29.379336 9.956484 5.101721 48.922690 9.416256 20.610301 -1.404552 45.385057 13.407128 -14.340405 15.096955 -9.862033 
-0.452271 0.616170 0.997986 76.328512 0.961059 93.202706 4.031807 0.794744 -4.573234 -2.770600 0.480686 3.814008 2.182506 9.584990 -4.848423 0.000000 -0.000000 0.000000 -3.354619 -4.781940 -7.809509 1.417729 -3.725217 10.020589 0.445456 -7.066899 -7.689180 0.000000 -0.000000 0.000000 0.910565 -0.254573 9.273248 2.637324 -2.933260 0.286192 0.610095 -1.801142 -2.494689 -1.567905 -9.103266 -7.687873 2.623506 -11.858042 7.042049 -28.874094 -7.923924 8.428000 -54.406615 -12.322710 22.474034 -9.910523 -63.159988 19.110062 20.513183 -0.716852 -41.399098 29.386868 9.887968 5.066209 48.956533 9.361043 20.675879 -1.261477 45.669689 13.633901 -14.116126 15.133087 -9.876369 
-0.451178 0.615768 0.997801 76.535328 0.958855 93.198573 4.060472 0.743211 -4.542301 -2.798144 0.387412 3.854383 2.189486 9.541247 -4.899355 0.000000 -0.000000 0.000000 -3.351727 -4.843941 -7.685346 1.421285 -3.786219 10.009776 0.418960 -7.154991 -7.750378 0.000000 -0.000000 0.000000 0.923359 -0.231036 9.074416 2.620168 -2.920655 0.250675 0.578807 -1.799809 -2.484416 -1.588449 -9.186345 -7.632844 2.569087 -11.960322 7.305957 -28.860954 -7.846796 8.505897 -54.447040 -12.355148 22.385897 -9.924233 -63.150839 19.140055 20.437923 -0.731773 -41.417656 29.349414 9.857424 5.076629 49.020967 9.386526 20.722161 -1.088722 45.961189 13.948584 -13.980623 15.172092 -9.999354 
-0.450060 0.615400 0.997602 76.707957 0.975658 93.135370 4.106467 0.700020 -4.468991 -2.823589 0.310953 3.946041 2.214601 9.502190 -4.979878 0.000000 -0.000000 0.000000 -3.335083 -4.883304 -7.518689 1.418805 -3.852039 10.034767 0.372836 -7.220546 -7.831281 0.000000 -0.000000 0.000000 0.949752 -0.219729 8.918359 2.598623 -2.906398 0.256442 0.549747 -1.777020 -2.541113 -1.571317 -9.299031 -7.570194 2.525332 -12.044755 7.496797 -28.879054 -7.775741 8.556644 -54.493361 -12.324418 22.277388 -9.803698 -63.147322 19.038166 20.411870 -0.730295 -41.379966 29.330674 9.890000 5.150317 49.064359 9.421609 20.719409 -0.928950 46.238920 14.240755 -14.003002 15.194931 -10.084850 
-0.448630 0.614933 0.997333 76.861402 0.985989 93.030635 4.145083 0.640024 -4.332947 -2.843896 0.235325 4.042731 2.192259 9.498086 -5.083149 0.000000 -0.000000 0.000000 -3.333842 -4.884872 -7.304667 1.411046 -3.940968 10.088516 0.355532 -7.292817 -7.917998 0.000000 -0.000000 0.000000 0.935982 -0.190922 8.703741 2.577293 -2.886777 0.346215 0.502851 -1.725887 -2.509076 -1.530455 -9.259780 -7.564222 2.454838 -12.197979 7.733689 -28.855599 -7.753774 8.521216 -54.549634 -12.278426 22.300077 -9.379611 -63.208904 18.662475 20.462306 -0.636256 -41.436884 29.363910 9.934805 5.107250 49.124481 9.508642 20.808279 -0.936068 46.537438 14.418364 -14.069373 15.131526 -10.176181 
